<svg xmlns="http://www.w3.org/2000/svg" width="624.712" height="135.419" viewBox="0 0 165.28841 35.829666"><defs><clipPath id="a"><path d="M0 851.277h1874.53V0H0z"/></clipPath></defs><g clip-path="url(#a)" transform="matrix(.1264 0 0 -.1264 -35.858 71.708)"><path d="M673.153 567.312c-17.63 0-32.056-14.425-32.056-32.056 0-17.625 14.426-32.05 32.056-32.05 17.63 0 32.052 14.425 32.052 32.05 0 17.631-14.422 32.056-32.052 32.056m338.247 0c-17.63 0-32.052-14.425-32.052-32.056 0-17.625 14.422-32.05 32.052-32.05 17.631 0 32.057 14.425 32.057 32.05 0 17.631-14.426 32.056-32.057 32.056m-403.81-84.406h-54.183c-1.472 0-2.947-1.105-3.316-2.582L515.81 373.802c-1.104-2.946-2.948-2.58-4.052 0l-41.284 106.895c-.736 1.84-1.844 2.21-3.316 2.21h-40.545c-1.476 0-2.58-.37-3.32-2.21l-41.28-106.894c-1.108-2.58-2.948-2.947-4.056 0L343.68 480.325c-.372 1.477-1.844 2.582-3.32 2.582h-54.184c-2.211 0-2.947-1.476-2.211-3.318l77.773-188.721c.736-1.843 2.212-2.211 3.688-2.211h29.118c1.476 0 2.947.368 3.688 2.21l46.808 106.525c1.108 2.58 2.584 2.58 3.688 0l47.18-106.524c.736-1.843 2.212-2.211 3.687-2.211h29.118c1.476 0 2.948.368 3.688 2.21l77.402 188.722c.74 1.842 0 3.318-2.212 3.318m92.205.773h-53.29c-1.848 0-2.96-1.113-2.96-2.963v-189.1c0-1.849 1.112-2.96 2.96-2.96h53.29c1.852 0 2.96 1.111 2.96 2.96v189.1c0 1.85-1.108 2.963-2.96 2.963m171.714-81.416c-1.111 1.482-1.111 2.59.37 4.072l78.452 73.642c1.85 1.85 1.109 3.702-1.481 3.702H882.61c-1.478 0-2.59-.374-3.7-1.482l-68.83-63.282c-1.851-1.85-3.702-.738-3.702 1.852v143.585c0 1.847-1.108 2.96-2.96 2.96h-53.29c-1.847 0-2.96-1.113-2.96-2.96V291.616c0-1.848 1.113-2.959 2.96-2.959h53.29c1.852 0 2.96 1.111 2.96 2.96v57.361c0 1.477.369 2.59 1.482 3.698l19.612 17.396c1.85 1.477 2.59 1.477 4.07-.374l57.36-79.19c.739-1.109 2.22-1.85 3.703-1.85h56.988c2.22 0 3.329 1.48 1.478 3.701zm166.534 81.416h-53.287c-1.851 0-2.96-1.113-2.96-2.963v-189.1c0-1.849 1.109-2.96 2.96-2.96h53.287c1.852 0 2.964 1.111 2.964 2.96v189.1c0 1.85-1.112 2.963-2.964 2.963m103.622 83.632h-53.291c-1.848 0-2.959-1.112-2.959-2.959V291.616c0-1.848 1.111-2.959 2.959-2.959h53.291c1.851 0 2.959 1.111 2.959 2.96v272.736c0 1.847-1.108 2.96-2.959 2.96m418.928-210.195c-1.481 1.112-2.964 1.48-4.072-.37-6.661-11.842-17.761-22.944-38.486-22.944-24.425 0-42.925 22.206-42.925 52.546 0 30.347 18.5 52.183 42.925 52.183 20.725 0 31.825-10.364 38.486-23.314.739-1.482 2.59-1.482 4.072-.37l29.603 27.013c1.482 1.482 1.482 2.59.369 4.072-14.801 21.833-38.116 38.854-72.53 38.854-58.1 0-102.135-44.038-102.135-98.438 0-54.767 44.035-98.802 102.135-98.802 34.414 0 57.729 17.39 72.53 38.854 1.113 1.483 1.113 2.59-.37 4.072zm-338.021 48.292c8.385 9.992 16.788 17.513 25.69 22.99 7.9 4.86 15.193 7.514 21.628 9.857 5.193 1.889 10.097 3.674 14.842 6.439 5.232 3.047 9.79 6.995 14.344 12.423 7.071 8.426 8.693 19.639 5.248 29.322-35.294 7.197-73.315-4.67-98.096-34.201-33.343-39.736-31.023-97.526 3.55-134.471-3.546 8.202-5.787 17.008-6.589 26.167-1.96 22.41 4.924 44.242 19.383 61.474m106.434 10.037c-8.967-10.687-15.52-14.821-21.3-18.47-5.241-3.307-10.191-6.431-17.53-15.177-11.674-13.913-17.231-31.538-15.65-49.628 1.562-17.835 9.88-34.016 23.445-45.655 24.01 3.339 46.912 15.242 63.72 35.274 36.023 42.929 30.423 106.933-12.506 142.955a102.573 102.573 0 0 1-7.102 5.451 63.944 63.944 0 0 0 1.402-8.83c1.464-16.739-3.677-33.047-14.48-45.92" fill="#4c8c2b"/><path d="M1283.96 387.015c16.307 19.433 22.525 14.215 38.832 33.647 14.15 16.865 16.403 39.75 7.656 58.461a102.688 102.688 0 0 1-17.504 6.926c3.027-11.536.599-24.315-7.651-34.146-24.46-29.149-43.892-12.843-76.504-51.709-25.802-30.749-23.13-75.914 5.21-103.448 16.22-8.997 35.024-13.716 54.768-12.782-27.96 27.57-30.485 72.448-4.806 103.051" fill="#ffa300"/></g></svg>